<svg width="20" height="16" viewBox="0 0 20 16" fill="none" xmlns="http://www.w3.org/2000/svg">
<path d="M3 0.5H17C17.663 0.5 18.2987 0.763581 18.7676 1.23242C19.2364 1.70126 19.5 2.33696 19.5 3V13L19.4873 13.2471C19.4305 13.8194 19.1778 14.3573 18.7676 14.7676C18.2987 15.2364 17.663 15.5 17 15.5H3C2.33696 15.5 1.70126 15.2364 1.23242 14.7676C0.763581 14.2987 0.5 13.663 0.5 13V3C0.5 2.33696 0.763581 1.70126 1.23242 1.23242C1.70126 0.763581 2.33696 0.5 3 0.5ZM3 1.5C2.60217 1.5 2.22076 1.65815 1.93945 1.93945C1.65815 2.22076 1.5 2.60217 1.5 3V13C1.5 13.3978 1.65815 13.7792 1.93945 14.0605C2.22076 14.3419 2.60218 14.5 3 14.5H17C17.3978 14.5 17.7792 14.3419 18.0605 14.0605C18.3419 13.7792 18.5 13.3978 18.5 13V3C18.5 2.60218 18.3419 2.22076 18.0605 1.93945C17.7792 1.65815 17.3978 1.5 17 1.5H3ZM15.0566 5.50781C15.1876 5.52288 15.3072 5.58953 15.3896 5.69238C15.4699 5.79558 15.507 5.92665 15.4922 6.05664C15.4809 6.15479 15.4406 6.24674 15.3779 6.32129L15.3076 6.38965L11.5586 9.38867C11.1159 9.74159 10.5662 9.93457 10 9.93457C9.43382 9.93457 8.88414 9.74159 8.44141 9.38867L4.71875 6.41113C4.63071 6.32571 4.57624 6.21137 4.56738 6.08887C4.55846 5.96392 4.59686 5.83927 4.6748 5.74121C4.75269 5.64333 4.86473 5.57813 4.98828 5.55859C5.10909 5.53956 5.2321 5.56704 5.33496 5.63281L9.06836 8.61133L9.07031 8.6123C9.30199 8.79532 9.58166 8.90504 9.87402 8.92969L10 8.93555C10.2954 8.93555 10.5834 8.84853 10.8281 8.68652L10.9297 8.6123L10.9316 8.61133L14.6914 5.61133L14.6904 5.61035C14.7938 5.52942 14.9261 5.4929 15.0566 5.50781Z" fill="#00B1AD" stroke="#00B1AD"/>
</svg>
