<svg width="20" height="20" viewBox="0 0 20 20" fill="none" xmlns="http://www.w3.org/2000/svg">
<g clip-path="url(#clip0_2448_1194)">
<path d="M20 10C20 4.47717 15.5228 1.28506e-05 9.99999 1.28506e-05C4.47716 1.28506e-05 0 4.47717 0 10C0 14.6898 3.2286 18.6249 7.58423 19.7055V13.0558H5.52216V10H7.58423V8.68325C7.58423 5.27957 9.12455 3.70197 12.4662 3.70197C13.0997 3.70197 14.1928 3.82617 14.64 3.95041V6.72057C14.404 6.69573 13.9941 6.68329 13.4848 6.68329C11.845 6.68329 11.2115 7.30441 11.2115 8.91929V10H14.4778L13.9167 13.0558H11.2115V19.9268C16.1629 19.3287 20 15.1127 20 10Z" fill="#0866FF"/>
<path d="M13.917 13.0558L14.4782 10H11.2118V8.91925C11.2118 7.30437 11.8453 6.68329 13.4851 6.68329C13.9944 6.68329 14.4043 6.69569 14.6403 6.72053V3.95041C14.1931 3.82617 13.1 3.70193 12.4665 3.70193C9.1249 3.70193 7.58454 5.27957 7.58454 8.68325V10H5.52246V13.0558H7.58454V19.7055C8.35826 19.8974 9.16726 20 10.0003 20C10.4105 20 10.8146 19.9747 11.2118 19.9268V13.0558H13.917Z" fill="white"/>
</g>
<defs>
<clipPath id="clip0_2448_1194">
<rect width="20" height="20" fill="white"/>
</clipPath>
</defs>
</svg>
