<svg width="15" height="15" viewBox="0 0 15 15" fill="none" xmlns="http://www.w3.org/2000/svg">
<path d="M4.16667 0H2.5C1.83696 0 1.20107 0.263392 0.732233 0.732233C0.263392 1.20107 0 1.83696 0 2.5V4.16667C0 4.82971 0.263392 5.46559 0.732233 5.93443C1.20107 6.40327 1.83696 6.66667 2.5 6.66667H4.16667C4.82971 6.66667 5.46559 6.40327 5.93443 5.93443C6.40327 5.46559 6.66667 4.82971 6.66667 4.16667V2.5C6.66667 1.83696 6.40327 1.20107 5.93443 0.732233C5.46559 0.263392 4.82971 0 4.16667 0ZM5 4.16667C5 4.38768 4.9122 4.59964 4.75592 4.75592C4.59964 4.9122 4.38768 5 4.16667 5H2.5C2.27899 5 2.06702 4.9122 1.91074 4.75592C1.75446 4.59964 1.66667 4.38768 1.66667 4.16667V2.5C1.66667 2.27899 1.75446 2.06702 1.91074 1.91074C2.06702 1.75446 2.27899 1.66667 2.5 1.66667H4.16667C4.38768 1.66667 4.59964 1.75446 4.75592 1.91074C4.9122 2.06702 5 2.27899 5 2.5V4.16667ZM4.16667 8.33333H2.5C1.83696 8.33333 1.20107 8.59672 0.732233 9.06557C0.263392 9.53441 0 10.1703 0 10.8333V12.5C0 13.163 0.263392 13.7989 0.732233 14.2678C1.20107 14.7366 1.83696 15 2.5 15H4.16667C4.82971 15 5.46559 14.7366 5.93443 14.2678C6.40327 13.7989 6.66667 13.163 6.66667 12.5V10.8333C6.66667 10.1703 6.40327 9.53441 5.93443 9.06557C5.46559 8.59672 4.82971 8.33333 4.16667 8.33333ZM5 12.5C5 12.721 4.9122 12.933 4.75592 13.0893C4.59964 13.2455 4.38768 13.3333 4.16667 13.3333H2.5C2.27899 13.3333 2.06702 13.2455 1.91074 13.0893C1.75446 12.933 1.66667 12.721 1.66667 12.5V10.8333C1.66667 10.6123 1.75446 10.4004 1.91074 10.2441C2.06702 10.0878 2.27899 10 2.5 10H4.16667C4.38768 10 4.59964 10.0878 4.75592 10.2441C4.9122 10.4004 5 10.6123 5 10.8333V12.5ZM12.5 0H10.8333C10.1703 0 9.53441 0.263392 9.06557 0.732233C8.59672 1.20107 8.33333 1.83696 8.33333 2.5V4.16667C8.33333 4.82971 8.59672 5.46559 9.06557 5.93443C9.53441 6.40327 10.1703 6.66667 10.8333 6.66667H12.5C13.163 6.66667 13.7989 6.40327 14.2678 5.93443C14.7366 5.46559 15 4.82971 15 4.16667V2.5C15 1.83696 14.7366 1.20107 14.2678 0.732233C13.7989 0.263392 13.163 0 12.5 0ZM13.3333 4.16667C13.3333 4.38768 13.2455 4.59964 13.0893 4.75592C12.933 4.9122 12.721 5 12.5 5H10.8333C10.6123 5 10.4004 4.9122 10.2441 4.75592C10.0878 4.59964 10 4.38768 10 4.16667V2.5C10 2.27899 10.0878 2.06702 10.2441 1.91074C10.4004 1.75446 10.6123 1.66667 10.8333 1.66667H12.5C12.721 1.66667 12.933 1.75446 13.0893 1.91074C13.2455 2.06702 13.3333 2.27899 13.3333 2.5V4.16667ZM12.5 8.33333H10.8333C10.1703 8.33333 9.53441 8.59672 9.06557 9.06557C8.59672 9.53441 8.33333 10.1703 8.33333 10.8333V12.5C8.33333 13.163 8.59672 13.7989 9.06557 14.2678C9.53441 14.7366 10.1703 15 10.8333 15H12.5C13.163 15 13.7989 14.7366 14.2678 14.2678C14.7366 13.7989 15 13.163 15 12.5V10.8333C15 10.1703 14.7366 9.53441 14.2678 9.06557C13.7989 8.59672 13.163 8.33333 12.5 8.33333ZM13.3333 12.5C13.3333 12.721 13.2455 12.933 13.0893 13.0893C12.933 13.2455 12.721 13.3333 12.5 13.3333H10.8333C10.6123 13.3333 10.4004 13.2455 10.2441 13.0893C10.0878 12.933 10 12.721 10 12.5V10.8333C10 10.6123 10.0878 10.4004 10.2441 10.2441C10.4004 10.0878 10.6123 10 10.8333 10H12.5C12.721 10 12.933 10.0878 13.0893 10.2441C13.2455 10.4004 13.3333 10.6123 13.3333 10.8333V12.5Z" fill="white"/>
</svg>
