<?xml version="1.0" encoding="utf-8"?>
<!-- Generator: Adobe Illustrator 26.5.0, SVG Export Plug-In . SVG Version: 6.00 Build 0)  -->
<svg version="1.1" id="Layer_1" xmlns="http://www.w3.org/2000/svg" xmlns:xlink="http://www.w3.org/1999/xlink" x="0px" y="0px"
	 viewBox="0 0 540 280" style="enable-background:new 0 0 540 280;" xml:space="preserve">
<style type="text/css">
	.st0{display:none;}
	.st1{enable-background:new    ;}
	.st2{fill:#FFFFFF;}
	.st3{fill-rule:evenodd;clip-rule:evenodd;fill:#FFFFFF;}
</style>
<g id="Background_xA0_Image_00000099644060197066937730000008218594395158506152_" class="st0">
</g>
<g id="Rectangle_1_00000052813100690863149420000002714916782469403322_" class="st1">
</g>
<g id="Rectangle_1_copy_00000129169154549334406600000009282413533518810003_" class="st1">
</g>
<g id="Rectangle_1_copy_2_00000161609594868997465600000014287863846834599097_" class="st1">
</g>
<g id="Rectangle_1_copy_3_00000054240922879312776470000005775077120099847832_" class="st1">
</g>
<g id="Polygon_1_00000088105215066329242870000000983348647478615170_" class="st1">
	<g>
		<g id="Rectangle_1">
			<g>
				<path class="st2" d="M141.2,10.2c-1.6-1.6-4.1-1.6-5.7,0L77.8,67.9l25.5,25.5l60.5-60.5L141.2,10.2z"/>
			</g>
		</g>
		<g id="Rectangle_1_copy">
			<g>
				<path class="st2" d="M173.5,110.5L113,170.8l22.6,22.6c1.6,1.6,4.1,1.6,5.7,0l57.7-57.5L173.5,110.5z"/>
			</g>
		</g>
		<g id="Rectangle_1_copy_2">
			<g>
				<path class="st2" d="M230.4,98.2L173,40.6L147.6,66l60.3,60.5l22.6-22.6C232,102.3,232,99.8,230.4,98.2z"/>
			</g>
		</g>
		<g id="Rectangle_1_copy_3">
			<g>
				<path class="st2" d="M68.7,75.6L46.1,98.2c-1.6,1.6-1.6,4.1,0,5.7l57.4,57.7l25.4-25.5L68.7,75.6z"/>
			</g>
		</g>
		<g id="Polygon_1">
			<g>
				<polygon class="st2" points="144.2,78.5 122.4,84.4 116.6,106.1 132.5,122 154.3,116.2 160.1,94.4 				"/>
			</g>
		</g>
		<path class="st2" d="M411.1,152.6c0,0,11.2-0.9,23.2-11.7l27.3,27.6c0,0-5.6,11-22.7,17.6L411.1,152.6z"/>
		<path class="st3" d="M255.6,17.6h40v118c0,0,0,59-69,59c0,0-28.6-1.2-45-21l28-27c0,0,11.4,9,21,9s25-10.6,25-25
			C255.6,116.1,255.6,17.6,255.6,17.6z"/>
		<path class="st3" d="M433.6,72.6c0,0-11.9-13-33-13s-33,13-33,13s-15,11.4-15,38s29,40,29,40s14.8,4.8,23,4l27,34l-9,3
			c0,0-19.6,5.4-41,1s-39-20-39-20s-30-23.2-30-67s30-65,30-65s20.8-21,59-21s60,25,60,25L433.6,72.6z"/>
		<g>
			<path class="st2" d="M122.9,251.9c0,3.8-2.8,6.6-6.6,6.6h-5.4v7.8h-2.1v-21h7.5C120.1,245.3,122.9,248.1,122.9,251.9z
				 M120.8,251.9c0-2.7-1.9-4.6-4.5-4.6h-5.4v9.2h5.4C118.9,256.5,120.8,254.6,120.8,251.9z"/>
			<path class="st2" d="M129.1,245.3v21H127v-21H129.1z"/>
			<path class="st2" d="M133,261.5l1.8-1c0.8,2.5,2.7,4.1,6,4.1c3.2,0,4.9-1.5,4.9-3.8c0-2.4-2.1-3.2-5.2-4.2
				c-3.4-1.1-6.7-2-6.7-5.9c0-3.7,3-5.8,6.4-5.8s5.8,2,6.9,4.5l-1.8,1c-0.8-1.9-2.4-3.5-5.2-3.5c-2.5,0-4.4,1.3-4.4,3.6
				c0,2.3,1.8,3,4.6,3.9c3.8,1.3,7.2,2.3,7.2,6.2c0,3.6-2.9,5.9-7.1,5.9C136.9,266.7,134.1,264.7,133,261.5z"/>
			<path class="st2" d="M150.7,255.8c0-6,4.7-10.9,10.9-10.9s10.9,4.9,10.9,10.9s-4.7,10.9-10.9,10.9S150.7,261.8,150.7,255.8z
				 M170.3,255.8c0-4.9-3.8-8.8-8.8-8.8s-8.8,3.9-8.8,8.8s3.8,8.8,8.8,8.8S170.3,260.7,170.3,255.8z"/>
			<path class="st2" d="M174.7,261.5l1.8-1c0.8,2.5,2.7,4.1,6,4.1c3.2,0,4.9-1.5,4.9-3.8c0-2.4-2.1-3.2-5.2-4.2
				c-3.4-1.1-6.7-2-6.7-5.9c0-3.7,3-5.8,6.4-5.8s5.8,2,6.9,4.5l-1.8,1c-0.8-1.9-2.4-3.5-5.2-3.5c-2.5,0-4.4,1.3-4.4,3.6
				c0,2.3,1.8,3,4.6,3.9c3.8,1.3,7.2,2.3,7.2,6.2c0,3.6-2.9,5.9-7.1,5.9C178.6,266.7,175.7,264.7,174.7,261.5z"/>
			<path class="st2" d="M203.9,245.3v21h-2.1v-21H203.9z"/>
			<path class="st2" d="M224.8,245.3v21H223l-11.7-17.1v17.1h-2.1v-21h1.8l11.7,17.1v-17.1H224.8z"/>
			<path class="st2" d="M243.4,247.3H237v19h-2.1v-19h-6.4v-2h15v2H243.4z"/>
			<path class="st2" d="M259.3,264.3v2H247v-21h12.1v2h-10v7.4h9.3v2h-9.3v7.6H259.3z"/>
			<path class="st2" d="M271.4,257.9h-5.9v8.4h-2.1v-21h8.4c3.5,0,6.3,2.8,6.3,6.3c0,2.8-1.9,5.3-4.5,6l5.1,8.7h-2.4L271.4,257.9z
				 M265.6,255.9h6.3c2.3,0,4.2-1.9,4.2-4.3s-1.9-4.3-4.2-4.3h-6.3V255.9z"/>
			<path class="st2" d="M295.1,247.3h-6.5v19h-2.1v-19H280v-2h15v2H295.1z"/>
			<path class="st2" d="M306.6,257.9h-5.9v8.4h-2.1v-21h8.4c3.5,0,6.3,2.8,6.3,6.3c0,2.8-1.9,5.3-4.5,6l5.1,8.7h-2.4L306.6,257.9z
				 M300.7,255.9h6.3c2.3,0,4.2-1.9,4.2-4.3s-1.9-4.3-4.2-4.3h-6.3V255.9z"/>
			<path class="st2" d="M329.5,261.1h-10l-2,5.2h-2.2l8.1-21h2.2l8.1,21h-2.2L329.5,261.1z M328.8,259.2l-4.2-11.2l-4.2,11.2H328.8z
				"/>
			<path class="st2" d="M333.7,245.3h2.3l6.5,18.2l6.5-18.2h2.3l-7.7,21h-2.2L333.7,245.3z"/>
			<path class="st2" d="M365.4,261.1h-10l-2,5.2h-2.2l8.1-21h2.2l8.1,21h-2.2L365.4,261.1z M364.7,259.2l-4.2-11.2l-4.2,11.2H364.7z
				"/>
			<path class="st2" d="M390.9,255.8c0,5.8-4.1,10.5-9.9,10.5h-8.1v-21h8.1C386.8,245.3,390.9,250,390.9,255.8z M388.8,255.8
				c0-4.7-3.2-8.5-7.9-8.5h-6v17h6C385.6,264.3,388.8,260.5,388.8,255.8z"/>
			<path class="st2" d="M393.8,255.8c0-6,4.7-10.9,10.9-10.9s10.9,4.9,10.9,10.9s-4.7,10.9-10.9,10.9S393.8,261.8,393.8,255.8z
				 M413.5,255.8c0-4.9-3.8-8.8-8.8-8.8s-8.8,3.9-8.8,8.8s3.8,8.8,8.8,8.8S413.5,260.7,413.5,255.8z"/>
			<path class="st2" d="M417.8,261.5l1.8-1c0.8,2.5,2.7,4.1,6,4.1c3.2,0,5-1.5,5-3.8c0-2.4-2.1-3.2-5.2-4.2c-3.4-1.1-6.7-2-6.7-5.9
				c0-3.7,3-5.8,6.5-5.8s5.8,2,6.9,4.5l-1.8,1c-0.8-1.9-2.4-3.5-5.2-3.5c-2.5,0-4.3,1.3-4.3,3.6c0,2.3,1.8,3,4.6,3.9
				c3.8,1.3,7.2,2.3,7.2,6.2c0,3.6-2.9,5.9-7.1,5.9C421.7,266.7,418.9,264.7,417.8,261.5z"/>
		</g>
	</g>
</g>
</svg>
