<?xml version="1.0" encoding="utf-8"?>
<!-- Generator: Adobe Illustrator 26.5.0, SVG Export Plug-In . SVG Version: 6.00 Build 0)  -->
<svg version="1.1" xmlns="http://www.w3.org/2000/svg" xmlns:xlink="http://www.w3.org/1999/xlink" x="0px" y="0px"
	 viewBox="0 0 580 580" style="enable-background:new 0 0 580 580;" xml:space="preserve">
<style type="text/css">
	.st0{display:none;}
	.st1{enable-background:new    ;}
	.st2{fill:#008872;}
	.st3{fill:#00B1AD;}
	.st4{fill-rule:evenodd;clip-rule:evenodd;fill:#231F20;}
	.st5{fill:#231F20;}
</style>
<g id="Background_xA0_Image_00000099644060197066937730000008218594395158506152_" class="st0">
	<image style="display:inline;overflow:visible;" width="580" height="580" id="Background_xA0_Image" xlink:href="1523C314.jpg" >
	</image>
</g>
<g id="Rectangle_1_00000052813100690863149420000002714916782469403322_" class="st1">
</g>
<g id="Rectangle_1_copy_00000129169154549334406600000009282413533518810003_" class="st1">
</g>
<g id="Rectangle_1_copy_2_00000161609594868997465600000014287863846834599097_" class="st1">
</g>
<g id="Rectangle_1_copy_3_00000054240922879312776470000005775077120099847832_" class="st1">
</g>
<g id="Polygon_1_00000088105215066329242870000000983348647478615170_" class="st1">
	<g>
		<g id="Rectangle_1">
			<g>
				<path class="st2" d="M161.2,160.2c-1.6-1.6-4.1-1.6-5.7,0l-57.7,57.7l25.5,25.5l60.5-60.5L161.2,160.2z"/>
			</g>
		</g>
		<g id="Rectangle_1_copy">
			<g>
				<path class="st2" d="M193.5,260.5L133,320.8l22.6,22.6c1.6,1.6,4.1,1.6,5.7,0l57.7-57.5L193.5,260.5z"/>
			</g>
		</g>
		<g id="Rectangle_1_copy_2">
			<g>
				<path class="st3" d="M250.4,248.2L193,190.6L167.6,216l60.3,60.5l22.6-22.6C252,252.3,252,249.8,250.4,248.2z"/>
			</g>
		</g>
		<g id="Rectangle_1_copy_3">
			<g>
				<path class="st3" d="M88.7,225.6l-22.6,22.6c-1.6,1.6-1.6,4.1,0,5.7l57.4,57.7l25.4-25.5L88.7,225.6z"/>
			</g>
		</g>
		<g id="Polygon_1">
			<g>
				<polygon class="st3" points="164.2,228.5 142.4,234.4 136.6,256.1 152.5,272 174.3,266.2 180.1,244.4 				"/>
			</g>
		</g>
		<path class="st3" d="M431.1,302.6c0,0,11.2-0.9,23.2-11.7l27.3,27.6c0,0-5.6,11-22.7,17.6L431.1,302.6z"/>
		<path class="st4" d="M275.6,167.6h40v118c0,0,0,59-69,59c0,0-28.6-1.2-45-21l28-27c0,0,11.4,9,21,9c9.6,0,25-10.6,25-25
			C275.6,266.1,275.6,167.6,275.6,167.6z"/>
		<path class="st4" d="M453.6,222.6c0,0-11.9-13-33-13c-21.1,0-33,13-33,13s-15,11.4-15,38c0,26.6,29,40,29,40s14.8,4.8,23,4l27,34
			l-9,3c0,0-19.6,5.4-41,1c-21.4-4.4-39-20-39-20s-30-23.2-30-67s30-65,30-65s20.8-21,59-21s60,25,60,25L453.6,222.6z"/>
		<g>
			<path class="st5" d="M142.9,401.9c0,3.8-2.8,6.6-6.6,6.6h-5.4v7.8h-2.1v-21h7.5C140.1,395.3,142.9,398.1,142.9,401.9z
				 M140.8,401.9c0-2.7-1.9-4.6-4.5-4.6h-5.4v9.2h5.4C138.9,406.5,140.8,404.6,140.8,401.9z"/>
			<path class="st5" d="M149.1,395.3v21H147v-21H149.1z"/>
			<path class="st5" d="M153,411.5l1.8-1c0.8,2.5,2.7,4.1,6,4.1c3.2,0,4.9-1.5,4.9-3.8c0-2.4-2.1-3.2-5.2-4.2
				c-3.4-1.1-6.7-2-6.7-5.9c0-3.7,3-5.8,6.4-5.8c3.4,0,5.8,2,6.9,4.5l-1.8,1c-0.8-1.9-2.4-3.5-5.2-3.5c-2.5,0-4.4,1.3-4.4,3.6
				c0,2.3,1.8,3,4.6,3.9c3.8,1.3,7.2,2.3,7.2,6.2c0,3.6-2.9,5.9-7.1,5.9C156.9,416.7,154.1,414.7,153,411.5z"/>
			<path class="st5" d="M170.7,405.8c0-6,4.7-10.9,10.9-10.9s10.9,4.9,10.9,10.9c0,6-4.7,10.9-10.9,10.9S170.7,411.8,170.7,405.8z
				 M190.3,405.8c0-4.9-3.8-8.8-8.8-8.8s-8.8,3.9-8.8,8.8c0,4.9,3.8,8.8,8.8,8.8S190.3,410.7,190.3,405.8z"/>
			<path class="st5" d="M194.7,411.5l1.8-1c0.8,2.5,2.7,4.1,6,4.1c3.2,0,4.9-1.5,4.9-3.8c0-2.4-2.1-3.2-5.2-4.2
				c-3.4-1.1-6.7-2-6.7-5.9c0-3.7,3-5.8,6.4-5.8c3.4,0,5.8,2,6.9,4.5l-1.8,1c-0.8-1.9-2.4-3.5-5.2-3.5c-2.5,0-4.4,1.3-4.4,3.6
				c0,2.3,1.8,3,4.6,3.9c3.8,1.3,7.2,2.3,7.2,6.2c0,3.6-2.9,5.9-7.1,5.9C198.6,416.7,195.7,414.7,194.7,411.5z"/>
			<path class="st5" d="M223.9,395.3v21h-2.1v-21H223.9z"/>
			<path class="st5" d="M244.8,395.3v21H243l-11.7-17.1v17.1h-2.1v-21h1.8l11.7,17.1v-17.1H244.8z"/>
			<path class="st5" d="M263.4,397.3H257v19h-2.1v-19h-6.4v-2h15V397.3z"/>
			<path class="st5" d="M279.3,414.3v2H267v-21h12.1v2h-10v7.4h9.3v2h-9.3v7.6H279.3z"/>
			<path class="st5" d="M291.4,407.9h-5.9v8.4h-2.1v-21h8.4c3.5,0,6.3,2.8,6.3,6.3c0,2.8-1.9,5.3-4.5,6l5.1,8.7h-2.4L291.4,407.9z
				 M285.6,405.9h6.3c2.3,0,4.2-1.9,4.2-4.3c0-2.4-1.9-4.3-4.2-4.3h-6.3V405.9z"/>
			<path class="st5" d="M315.1,397.3h-6.5v19h-2.1v-19h-6.5v-2h15V397.3z"/>
			<path class="st5" d="M326.6,407.9h-5.9v8.4h-2.1v-21h8.4c3.5,0,6.3,2.8,6.3,6.3c0,2.8-1.9,5.3-4.5,6l5.1,8.7h-2.4L326.6,407.9z
				 M320.7,405.9h6.3c2.3,0,4.2-1.9,4.2-4.3c0-2.4-1.9-4.3-4.2-4.3h-6.3V405.9z"/>
			<path class="st5" d="M349.5,411.1h-10l-2,5.2h-2.2l8.1-21h2.2l8.1,21h-2.2L349.5,411.1z M348.8,409.2l-4.2-11.2l-4.2,11.2H348.8z
				"/>
			<path class="st5" d="M353.7,395.3h2.3l6.5,18.2l6.5-18.2h2.3l-7.7,21h-2.2L353.7,395.3z"/>
			<path class="st5" d="M385.4,411.1h-10l-2,5.2h-2.2l8.1-21h2.2l8.1,21h-2.2L385.4,411.1z M384.7,409.2l-4.2-11.2l-4.2,11.2H384.7z
				"/>
			<path class="st5" d="M410.9,405.8c0,5.8-4.1,10.5-9.9,10.5h-8.1v-21h8.1C406.8,395.3,410.9,400,410.9,405.8z M408.8,405.8
				c0-4.7-3.2-8.5-7.9-8.5h-6v17h6C405.6,414.3,408.8,410.5,408.8,405.8z"/>
			<path class="st5" d="M413.8,405.8c0-6,4.7-10.9,10.9-10.9s10.9,4.9,10.9,10.9c0,6-4.7,10.9-10.9,10.9S413.8,411.8,413.8,405.8z
				 M433.5,405.8c0-4.9-3.8-8.8-8.8-8.8s-8.8,3.9-8.8,8.8c0,4.9,3.8,8.8,8.8,8.8S433.5,410.7,433.5,405.8z"/>
			<path class="st5" d="M437.8,411.5l1.8-1c0.8,2.5,2.7,4.1,6,4.1c3.2,0,5-1.5,5-3.8c0-2.4-2.1-3.2-5.2-4.2c-3.4-1.1-6.7-2-6.7-5.9
				c0-3.7,3-5.8,6.5-5.8c3.5,0,5.8,2,6.9,4.5l-1.8,1c-0.8-1.9-2.4-3.5-5.2-3.5c-2.5,0-4.3,1.3-4.3,3.6c0,2.3,1.8,3,4.6,3.9
				c3.8,1.3,7.2,2.3,7.2,6.2c0,3.6-2.9,5.9-7.1,5.9C441.7,416.7,438.9,414.7,437.8,411.5z"/>
		</g>
	</g>
</g>
</svg>
