<svg width="157" height="25" viewBox="0 0 157 25" fill="none" xmlns="http://www.w3.org/2000/svg">
<path d="M12.5 0L15.3064 8.63729H24.3882L17.0409 13.9754L19.8473 22.6127L12.5 17.2746L5.15268 22.6127L7.95911 13.9754L0.611794 8.63729H9.69357L12.5 0Z" fill="#FF7A00"/>
<path d="M45.5 0L48.3064 8.63729H57.3882L50.0409 13.9754L52.8473 22.6127L45.5 17.2746L38.1527 22.6127L40.9591 13.9754L33.6118 8.63729H42.6936L45.5 0Z" fill="#FF7A00"/>
<path d="M78.5 0L81.3064 8.63729H90.3882L83.0409 13.9754L85.8473 22.6127L78.5 17.2746L71.1527 22.6127L73.9591 13.9754L66.6118 8.63729H75.6936L78.5 0Z" fill="#FF7A00"/>
<path d="M111.5 0L114.306 8.63729H123.388L116.041 13.9754L118.847 22.6127L111.5 17.2746L104.153 22.6127L106.959 13.9754L99.6118 8.63729H108.694L111.5 0Z" fill="#FF7A00"/>
<path d="M144.5 0L147.306 8.63729H156.388L149.041 13.9754L151.847 22.6127L144.5 17.2746L137.153 22.6127L139.959 13.9754L132.612 8.63729H141.694L144.5 0Z" fill="#FF7A00"/>
</svg>
