<svg width="22" height="23" viewBox="0 0 22 23" fill="none" xmlns="http://www.w3.org/2000/svg">
<path d="M20.0697 6.5041C19.5615 5.38115 18.832 4.37295 17.9058 3.5041C16.9795 2.64344 15.9058 1.96311 14.709 1.4877C13.4713 0.995902 12.1599 0.75 10.8074 0.75C9.45493 0.75 8.14345 0.995902 6.90575 1.4877C5.70902 1.96311 4.63525 2.63525 3.70902 3.5041C2.78279 4.37295 2.05329 5.38115 1.5451 6.5041C1.02051 7.66803 0.75 8.91393 0.75 10.1926C0.75 12.4303 1.58606 14.5779 3.11884 16.2828L2.29917 20.75L6.65984 18.8074C7.96312 19.3648 9.34837 19.6434 10.7992 19.6434C12.1516 19.6434 13.4631 19.3975 14.7008 18.9057C15.8976 18.4303 16.9713 17.7582 17.8976 16.8893C18.8238 16.0205 19.5533 15.0123 20.0615 13.8893C20.5861 12.7254 20.8566 11.4795 20.8566 10.2008C20.8648 8.91393 20.5943 7.67623 20.0697 6.5041Z" fill="#3FC350" stroke="white" stroke-width="1.5"/>
<path d="M14.8893 12.0778C14.4631 11.8647 14.1516 11.7336 13.9303 11.6516C13.791 11.6024 13.4631 11.4549 13.3484 11.545C12.9877 11.8401 12.6024 12.6762 12.1926 12.8319C11.1762 12.6352 10.2336 11.9385 9.4959 11.2254C9.16803 10.9139 8.56147 10.0286 8.43032 9.79093C8.40573 9.54503 8.84834 9.21716 8.9467 9.02864C9.4549 8.45487 9.06967 8.09421 9.00409 7.85651C8.88934 7.61061 8.69263 7.16798 8.52049 6.80733C8.37295 6.56962 8.34013 6.21716 8.07784 6.08602C6.96309 5.51225 6.32377 6.65979 6.06148 7.25815C4.47951 11.0696 13.9877 18.3237 15.9221 13.3237C16.0205 12.8893 15.9795 12.7254 15.8319 12.5286C15.5369 12.3237 15.1926 12.2336 14.8893 12.0778Z" fill="#3FC350" stroke="white" stroke-width="1.5"/>
</svg>
